<svg xmlns="http://www.w3.org/2000/svg" xmlns:xlink="http://www.w3.org/1999/xlink" data-background-color="#ffffff" preserveAspectRatio="xMidYMid meet" id="tight-bounds" viewBox="1.15 0 93.19 95.48"><g><svg viewBox="0 0 95.481 95.481" height="95.481" width="95.481"><g><svg viewBox="0 0 95.481 95.481" height="95.481" width="95.481"><g id="textblocktransform"><svg viewBox="0 0 95.481 95.481" height="95.481" width="95.481" id="textblock"><g><svg viewBox="0 0 95.481 95.481" height="95.481" width="95.481"><g><svg viewBox="0 0 95.481 95.481" height="95.481" width="95.481"><g><svg viewBox="0 0 95.481 95.481" height="95.481" width="95.481"><g transform="matrix(1,0,0,1,25.23541247517575,25.23541247517575)"><svg viewBox="0 0 45.010175049648495 45.010175049648495" height="45.010175049648495" width="45.010175049648495"><g><svg xmlns="http://www.w3.org/2000/svg" xml:space="preserve" viewBox="17.60000228881836 17.600000381469727 64.69999694824219 64.69999694824219" x="0" y="0" height="45.010175049648495" width="45.010175049648495" class="icon-b-0" data-fill-palette-color="accent" id="b-0"><path d="M47.4 43.3V32.5c0-1.8-1.5-3.2-3.2-3.2-1.8 0-3.2 1.5-3.2 3.2v12.3c0 0.1 0 0.2 0.1 0.3 0 0.1 0.1 0.2 0.1 0.3s0.1 0.2 0.1 0.3 0 0.1 0.1 0.2L47.2 56c0.6 1 1.7 1.6 2.8 1.6 0.5 0 1.1-0.1 1.6-0.4 1.6-0.9 2.1-2.9 1.2-4.4z" fill="#ff0013" data-fill-palette-color="accent"/><path d="M70 30.4l-0.6-0.6-11.3-11.3c-0.6-0.6-1.4-0.9-2.3-0.9h-35c-1.8 0-3.2 1.5-3.2 3.2v46.7c0 1.8 1.5 3.2 3.2 3.2h8.4v8.4c0 1.8 1.5 3.2 3.2 3.2h46.7c1.8 0 3.2-1.5 3.2-3.2v-35c0-0.9-0.3-1.7-0.9-2.3zM24.1 64.3V24.1h28.5v8.4c0 0.9 0.4 1.7 1 2.3s1.4 0.9 2.2 0.9h0.1c0.1 0 4.9-0.2 8.3-0.2v28.7H24.1z m51.8 11.6H35.7v-5.2h31.8c1.8 0 3.2-1.5 3.2-3.2V40.3l5.2 5.2z" fill="#ff0013" data-fill-palette-color="accent"/></svg></g></svg></g><g id="text-0"><path d="M9.266 35.652v0c-0.068 0.207-0.16 0.448-0.278 0.723-0.115 0.268-0.236 0.531-0.361 0.789-0.128 0.264-0.238 0.496-0.331 0.695v0l-0.66-0.309c0.084-0.195 0.182-0.42 0.293-0.676 0.119-0.26 0.231-0.516 0.333-0.767 0.105-0.258 0.186-0.475 0.244-0.651v0c0.113-0.346 0.155-0.645 0.125-0.898-0.029-0.253-0.129-0.469-0.299-0.65-0.171-0.181-0.419-0.324-0.746-0.43v0c-0.264-0.086-0.491-0.104-0.681-0.055-0.19 0.049-0.37 0.175-0.54 0.376-0.164 0.204-0.35 0.487-0.558 0.851v0c-0.198 0.353-0.39 0.652-0.574 0.897-0.193 0.25-0.394 0.442-0.605 0.575-0.206 0.141-0.441 0.221-0.703 0.24-0.255 0.014-0.552-0.034-0.892-0.145v0c-0.465-0.152-0.811-0.369-1.039-0.651-0.219-0.287-0.338-0.628-0.355-1.023-0.017-0.395 0.05-0.825 0.201-1.29v0c0.068-0.207 0.157-0.439 0.268-0.695 0.113-0.262 0.228-0.517 0.343-0.764 0.117-0.254 0.223-0.47 0.316-0.648v0l0.673 0.303c-0.091 0.193-0.192 0.417-0.303 0.673-0.111 0.256-0.216 0.503-0.315 0.742-0.105 0.237-0.181 0.428-0.228 0.572v0c-0.109 0.333-0.156 0.627-0.141 0.882 0.006 0.259 0.074 0.476 0.205 0.651 0.133 0.168 0.331 0.296 0.595 0.381v0c0.308 0.1 0.559 0.12 0.753 0.058 0.2-0.06 0.386-0.204 0.558-0.433 0.172-0.229 0.376-0.535 0.612-0.917v0c0.2-0.338 0.393-0.619 0.577-0.844 0.18-0.233 0.37-0.411 0.57-0.534 0.194-0.125 0.409-0.19 0.648-0.195 0.24-0.012 0.514 0.032 0.823 0.132v0c0.534 0.174 0.931 0.408 1.19 0.701 0.265 0.295 0.417 0.64 0.455 1.034 0.038 0.395-0.019 0.828-0.173 1.3z" fill="#ff0013" data-fill-palette-color="accent"/><path d="M18.265 20.772v0c-0.373 0.402-0.745 0.648-1.116 0.737-0.371 0.089-0.756 0.042-1.156-0.139-0.4-0.181-0.827-0.483-1.283-0.906v0c-0.509-0.472-0.853-0.922-1.033-1.351-0.175-0.424-0.216-0.827-0.122-1.209 0.088-0.387 0.29-0.75 0.604-1.089v0c0.499-0.538 1.025-0.803 1.577-0.796 0.552-0.002 1.157 0.303 1.816 0.914v0l0.439 0.475-2.454 2.646c0.426 0.377 0.817 0.591 1.174 0.643 0.353 0.048 0.709-0.122 1.069-0.51v0c0.139-0.15 0.287-0.319 0.444-0.508 0.157-0.188 0.313-0.377 0.47-0.565 0.152-0.183 0.282-0.343 0.389-0.477v0l0.5 0.437c-0.097 0.153-0.221 0.331-0.373 0.533-0.147 0.207-0.305 0.411-0.475 0.614-0.165 0.207-0.322 0.391-0.47 0.551zM15.028 19.582v0l1.901-2.05c-0.489-0.454-0.905-0.696-1.248-0.725-0.342-0.02-0.675 0.145-0.998 0.493v0c-0.207 0.223-0.339 0.452-0.396 0.689-0.052 0.24-0.021 0.49 0.092 0.747 0.113 0.267 0.329 0.549 0.649 0.846z" fill="#ff0013" data-fill-palette-color="accent"/><path d="M31.531 11.33l-0.771 0.339-2.207-5.019 0.771-0.34 0.296 0.672c0.09-0.141 0.209-0.305 0.357-0.493 0.148-0.188 0.319-0.382 0.513-0.583 0.19-0.192 0.394-0.361 0.611-0.507v0l0.347 0.79c-0.209 0.149-0.411 0.314-0.606 0.494-0.201 0.182-0.383 0.36-0.546 0.532-0.156 0.17-0.283 0.316-0.381 0.439v0z" fill="#ff0013" data-fill-palette-color="accent"/><path d="M47.134 7.984l-0.853 0.017-0.097-4.748-0.694 0.014-0.015-0.734 0.694-0.014-0.009-0.476c-0.011-0.529 0.027-0.939 0.113-1.232 0.093-0.293 0.248-0.501 0.463-0.624 0.216-0.117 0.502-0.179 0.859-0.186v0c0.086-0.002 0.208-0.001 0.367 0.002 0.152 0.01 0.301 0.017 0.447 0.021 0.146 0.01 0.248 0.021 0.308 0.033v0l0.005 0.714c-0.132-0.004-0.291-0.007-0.476-0.01-0.192 0.004-0.344 0.007-0.456 0.009v0c-0.205 0.004-0.366 0.041-0.484 0.11-0.117 0.075-0.198 0.202-0.24 0.381-0.042 0.186-0.06 0.444-0.054 0.775v0l0.01 0.466 1.576-0.032 0.015 0.733-1.576 0.032z" fill="#ff0013" data-fill-palette-color="accent"/><path d="M62.397 10.652l-0.795-0.278 2.592-7.423 0.796 0.278z" fill="#ff0013" data-fill-palette-color="accent"/><path d="M75.543 19.115v0c-0.454-0.414-0.734-0.813-0.841-1.197-0.111-0.388-0.071-0.785 0.122-1.192 0.192-0.416 0.508-0.865 0.949-1.348v0c0.423-0.464 0.829-0.796 1.218-0.996 0.389-0.2 0.779-0.26 1.171-0.18 0.392 0.08 0.8 0.314 1.225 0.702v0c0.43 0.392 0.702 0.78 0.818 1.163 0.116 0.383 0.092 0.777-0.073 1.183-0.169 0.401-0.465 0.833-0.888 1.296v0c-0.441 0.483-0.858 0.841-1.25 1.075-0.387 0.228-0.779 0.305-1.175 0.229-0.392-0.071-0.817-0.316-1.276-0.735zM76.038 18.573v0c0.312 0.285 0.598 0.443 0.856 0.473 0.254 0.035 0.517-0.042 0.79-0.232 0.267-0.195 0.572-0.48 0.915-0.856v0c0.339-0.371 0.579-0.698 0.721-0.98 0.137-0.278 0.17-0.539 0.098-0.784-0.067-0.24-0.242-0.49-0.526-0.748v0c-0.283-0.258-0.547-0.41-0.793-0.455-0.25-0.049-0.507 0.007-0.771 0.168-0.268 0.167-0.572 0.435-0.911 0.807v0c-0.343 0.376-0.6 0.706-0.769 0.989-0.165 0.288-0.218 0.557-0.16 0.808 0.054 0.255 0.237 0.525 0.55 0.81z" fill="#ff0013" data-fill-palette-color="accent"/><path d="M85.459 33.607l-0.499-1.316 4.666-3.16 0.302 0.798-4.057 2.695 0.066 0.176 4.793-0.45 0.313 0.825-3.882 2.851 0.067 0.176 4.821-0.683 0.302 0.797-5.584 0.74-0.503-1.326 3.564-2.571z" fill="#ff0013" data-fill-palette-color="accent"/><path d="M3.79 64.154v0c-0.072-0.22-0.144-0.481-0.216-0.785-0.07-0.297-0.134-0.596-0.191-0.897-0.057-0.301-0.107-0.567-0.148-0.797v0l0.754-0.154c0.045 0.222 0.102 0.478 0.169 0.769 0.06 0.287 0.125 0.571 0.198 0.853 0.066 0.285 0.13 0.521 0.191 0.71v0c0.118 0.358 0.268 0.635 0.452 0.832 0.183 0.197 0.404 0.319 0.663 0.367 0.259 0.047 0.558 0.015 0.897-0.097v0c0.283-0.093 0.488-0.22 0.616-0.38 0.128-0.16 0.202-0.38 0.222-0.658 0.014-0.276-0.006-0.631-0.059-1.066v0c-0.049-0.422-0.071-0.798-0.067-1.126 0.012-0.324 0.064-0.609 0.157-0.856 0.091-0.253 0.24-0.465 0.447-0.638 0.208-0.173 0.49-0.318 0.848-0.435v0c0.49-0.161 0.918-0.191 1.286-0.09 0.368 0.102 0.681 0.315 0.942 0.641 0.258 0.319 0.468 0.723 0.628 1.212v0c0.072 0.22 0.142 0.475 0.211 0.766 0.068 0.291 0.131 0.576 0.188 0.857 0.053 0.289 0.096 0.535 0.129 0.74v0l-0.76 0.167c-0.043-0.215-0.099-0.469-0.166-0.76-0.066-0.285-0.129-0.56-0.188-0.825-0.064-0.257-0.122-0.465-0.174-0.622v0c-0.116-0.352-0.257-0.632-0.423-0.841-0.166-0.21-0.358-0.348-0.575-0.417-0.223-0.066-0.473-0.053-0.75 0.038v0c-0.32 0.105-0.545 0.246-0.675 0.421-0.13 0.175-0.197 0.416-0.201 0.724-0.005 0.301 0.013 0.685 0.056 1.151v0c0.038 0.412 0.052 0.773 0.042 1.081-0.018 0.305-0.069 0.572-0.153 0.803-0.093 0.225-0.238 0.419-0.435 0.581-0.193 0.154-0.456 0.286-0.789 0.395v0c-0.553 0.182-1.034 0.232-1.442 0.152-0.405-0.089-0.746-0.29-1.023-0.603-0.277-0.313-0.497-0.717-0.661-1.213z" fill="#ff0013" data-fill-palette-color="accent"/><path d="M14.086 81.163v0c-0.397-0.425-0.626-0.836-0.686-1.23-0.066-0.4 0.012-0.802 0.231-1.206 0.22-0.404 0.569-0.829 1.048-1.275v0c0.537-0.5 1.034-0.829 1.493-0.986 0.464-0.152 0.892-0.168 1.286-0.047 0.393 0.131 0.756 0.375 1.09 0.733v0c0.527 0.566 0.769 1.135 0.726 1.709-0.048 0.578-0.418 1.19-1.109 1.834v0l-0.528 0.438-2.59-2.777c-0.431 0.411-0.685 0.802-0.763 1.173-0.078 0.362 0.074 0.749 0.457 1.159v0c0.149 0.16 0.313 0.331 0.494 0.515 0.185 0.18 0.369 0.357 0.55 0.532 0.19 0.175 0.349 0.321 0.476 0.437v0l-0.495 0.502c-0.15-0.113-0.325-0.257-0.525-0.432-0.209-0.176-0.413-0.356-0.612-0.541-0.204-0.19-0.385-0.369-0.543-0.538zM15.584 77.855v0l2.008 2.154c0.517-0.482 0.799-0.903 0.844-1.262 0.055-0.358-0.089-0.721-0.432-1.088v0c-0.221-0.237-0.452-0.392-0.692-0.466-0.25-0.074-0.517-0.06-0.802 0.042-0.279 0.098-0.588 0.305-0.926 0.62z" fill="#ff0013" data-fill-palette-color="accent"/><path d="M29.325 91.687l-0.808-0.355 2.316-5.285 0.808 0.354-0.31 0.708c0.173-0.032 0.386-0.058 0.64-0.076 0.254-0.019 0.526-0.022 0.816-0.011 0.287 0.003 0.564 0.038 0.831 0.105v0l-0.366 0.835c-0.257-0.055-0.529-0.095-0.814-0.118-0.283-0.03-0.547-0.045-0.793-0.045-0.254 0.004-0.463 0.01-0.625 0.019v0z" fill="#ff0013" data-fill-palette-color="accent"/><path d="M46.982 95.481l-0.902-0.019 0.107-4.997-0.723-0.015 0.016-0.773 0.724 0.015 0.011-0.505c0.012-0.555 0.071-0.984 0.176-1.286 0.106-0.308 0.276-0.52 0.51-0.633 0.234-0.114 0.539-0.167 0.916-0.159v0c0.093 0.002 0.221 0.008 0.386 0.018 0.158 0.01 0.314 0.023 0.465 0.04 0.158 0.017 0.267 0.032 0.327 0.047v0l-0.026 0.753c-0.139-0.01-0.307-0.02-0.506-0.031-0.192-0.004-0.35-0.008-0.475-0.01v0c-0.218-0.005-0.387 0.028-0.508 0.098-0.127 0.07-0.216 0.2-0.267 0.391-0.057 0.191-0.089 0.458-0.096 0.801v0l-0.011 0.496 1.665 0.036-0.016 0.773-1.666-0.036z" fill="#ff0013" data-fill-palette-color="accent"/><path d="M64.084 92.569l-0.835 0.286-2.685-7.821 0.835-0.286z" fill="#ff0013" data-fill-palette-color="accent"/><path d="M79.262 83.255v0c-0.481 0.433-0.93 0.686-1.346 0.758-0.416 0.072-0.825-0.013-1.23-0.255-0.413-0.242-0.852-0.621-1.316-1.136v0c-0.442-0.491-0.748-0.95-0.917-1.375-0.17-0.425-0.192-0.841-0.068-1.247 0.124-0.396 0.412-0.797 0.864-1.204v0c0.457-0.411 0.891-0.66 1.303-0.746 0.416-0.081 0.824-0.013 1.224 0.205 0.405 0.213 0.829 0.566 1.272 1.057v0c0.464 0.516 0.797 0.99 0.999 1.422 0.193 0.431 0.231 0.85 0.117 1.255-0.115 0.406-0.416 0.828-0.902 1.266zM78.744 82.68v0c0.334-0.301 0.529-0.583 0.585-0.847 0.061-0.268 0.006-0.552-0.165-0.851-0.171-0.299-0.439-0.65-0.802-1.053v0c-0.354-0.393-0.671-0.677-0.952-0.851-0.281-0.174-0.549-0.24-0.804-0.196-0.256 0.052-0.536 0.215-0.84 0.489v0c-0.295 0.265-0.484 0.524-0.568 0.777-0.074 0.254-0.04 0.529 0.104 0.827 0.143 0.298 0.392 0.643 0.746 1.037v0c0.363 0.403 0.684 0.705 0.964 0.907 0.28 0.202 0.556 0.287 0.829 0.254 0.273-0.032 0.574-0.197 0.903-0.493z" fill="#ff0013" data-fill-palette-color="accent"/><path d="M90.591 66.501l-0.535 1.387-5.873-0.808 0.325-0.842 5.069 0.743 0.071-0.185-4.066-3.013 0.335-0.87 5.037 0.497 0.071-0.185-4.256-2.853 0.325-0.841 4.892 3.352-0.535 1.388-4.595-0.486z" fill="#ff0013" data-fill-palette-color="accent"/><path d="M1.146 48.923c0-1.682 1.363-3.045 3.045-3.046 1.682 0 3.045 1.363 3.045 3.046 0 1.682-1.363 3.045-3.045 3.045-1.682 0-3.045-1.363-3.045-3.045z" fill="#ff0013" data-fill-palette-color="accent"/><path d="M88.245 48.923c0-1.682 1.363-3.045 3.045-3.046 1.682 0 3.045 1.363 3.045 3.046 0 1.682-1.363 3.045-3.045 3.045-1.682 0-3.045-1.363-3.045-3.045z" fill="#ff0013" data-fill-palette-color="accent"/></g><g id="text-1"/></svg></g></svg></g></svg></g></svg></g></svg></g></svg></g><defs/></svg>