<svg xmlns="http://www.w3.org/2000/svg" version="1.1" xmlns:xlink="http://www.w3.org/1999/xlink" xmlns:svgjs="http://svgjs.dev/svgjs" width="1500" height="1500" viewBox="0 0 1500 1500"><rect width="1500" height="1500" fill="#ffffff"></rect><g transform="matrix(0.6666666666666666,0,0,0.6666666666666666,249.39393939393938,575.0034208121962)"><svg viewBox="0 0 396 139" data-background-color="#ffffff" preserveAspectRatio="xMidYMid meet" height="526" width="1500" xmlns="http://www.w3.org/2000/svg" xmlns:xlink="http://www.w3.org/1999/xlink"><g id="tight-bounds" transform="matrix(1,0,0,1,0.2400000000000091,-0.13348524589906674)"><svg viewBox="0 0 395.52 139.26697049179813" height="139.26697049179813" width="395.52"><g><svg viewBox="0 0 694.1882283056746 244.43135999999998" height="139.26697049179813" width="395.52"><g transform="matrix(1,0,0,1,298.66822830567463,76.26702930643128)"><svg viewBox="0 0 395.52 91.89730138713743" height="91.89730138713743" width="395.52"><g id="textblocktransform"><svg viewBox="0 0 395.52 91.89730138713743" height="91.89730138713743" width="395.52" id="textblock"><g><svg viewBox="0 0 395.52 91.89730138713743" height="91.89730138713743" width="395.52"><g transform="matrix(1,0,0,1,0,0)"><svg width="395.52" viewBox="2.4 -36.35 158.59 36.85" height="91.89730138713743" data-palette-color="#374151"><path d="M13.65 0.45L13.65 0.45Q12.15 0.45 10.15 0.28 8.15 0.1 6.18-0.18 4.2-0.45 2.7-0.65L2.7-0.65 3.1-3.95Q4.55-3.8 6.48-3.6 8.4-3.4 10.28-3.25 12.15-3.1 13.45-3.1L13.45-3.1Q15.9-3.1 17.5-3.83 19.1-4.55 19.9-6.05 20.7-7.55 20.7-9.9L20.7-9.9Q20.7-11.8 19.98-12.93 19.25-14.05 17.57-14.73 15.9-15.4 13.1-15.95L13.1-15.95Q10.4-16.5 8.4-17.2 6.4-17.9 5.05-18.98 3.7-20.05 3.05-21.7 2.4-23.35 2.4-25.8L2.4-25.8Q2.4-29.15 3.78-31.2 5.15-33.25 7.68-34.2 10.2-35.15 13.55-35.15L13.55-35.15Q15.05-35.15 16.98-34.98 18.9-34.8 20.78-34.58 22.65-34.35 24-34.1L24-34.1 23.65-30.75Q22.2-30.95 20.3-31.13 18.4-31.3 16.65-31.45 14.9-31.6 13.85-31.6L13.85-31.6Q11.45-31.6 9.8-31 8.15-30.4 7.3-29.18 6.45-27.95 6.45-26.05L6.45-26.05Q6.45-23.85 7.28-22.7 8.1-21.55 9.95-20.9 11.8-20.25 14.8-19.55L14.8-19.55Q17.4-18.95 19.28-18.25 21.15-17.55 22.38-16.53 23.6-15.5 24.18-13.98 24.75-12.45 24.75-10.2L24.75-10.2Q24.75-6.4 23.4-4.05 22.05-1.7 19.55-0.63 17.05 0.45 13.65 0.45ZM39.55 0.5L39.55 0.5Q35.8 0.5 33.62-0.95 31.45-2.4 30.5-5.25 29.55-8.1 29.55-12.35L29.55-12.35Q29.55-17.1 30.85-19.98 32.15-22.85 34.5-24.18 36.85-25.5 40.05-25.5L40.05-25.5Q45.05-25.5 47.6-22.73 50.15-19.95 50.15-13.8L50.15-13.8 49.95-10.85 33.5-10.85Q33.55-6.95 34.95-4.95 36.35-2.95 40-2.95L40-2.95Q41.4-2.95 43.07-3.03 44.75-3.1 46.4-3.2 48.05-3.3 49.2-3.4L49.2-3.4 49.3-0.35Q48.1-0.15 46.37 0.05 44.65 0.25 42.85 0.38 41.05 0.5 39.55 0.5ZM33.5-14L33.5-14 46.25-14Q46.25-18.6 44.77-20.43 43.3-22.25 40.05-22.25L40.05-22.25Q37.95-22.25 36.5-21.43 35.05-20.6 34.27-18.8 33.5-17 33.5-14ZM59.8 0L55.95 0 55.95-25 59.8-25 59.8-21.65Q60.74-22.3 62.2-23.08 63.64-23.85 65.39-24.55 67.14-25.25 68.89-25.55L68.89-25.55 68.89-21.6Q67.19-21.25 65.44-20.68 63.7-20.1 62.22-19.45 60.74-18.8 59.8-18.3L59.8-18.3 59.8 0ZM78.24 0L74.34 0 74.34-21.65 71.19-21.65 71.19-25 74.34-25 74.34-27.2Q74.34-30.8 74.99-32.8 75.64-34.8 77.14-35.58 78.64-36.35 81.09-36.35L81.09-36.35Q81.69-36.35 82.74-36.3 83.79-36.25 84.79-36.18 85.79-36.1 86.19-36L86.19-36 86.14-32.75Q85.24-32.8 83.97-32.83 82.69-32.85 81.89-32.85L81.89-32.85Q80.49-32.85 79.69-32.38 78.89-31.9 78.57-30.65 78.24-29.4 78.24-27.15L78.24-27.15 78.24-25 85.44-25 85.44-21.65 78.24-21.65 78.24 0ZM94.04 0L90.19 0 90.19-35.85 94.04-35.85 94.04 0ZM111.14 0.5L111.14 0.5Q106.94 0.5 104.61-0.95 102.29-2.4 101.36-5.35 100.44-8.3 100.44-12.8L100.44-12.8Q100.44-17.1 101.46-19.9 102.49-22.7 104.84-24.1 107.19-25.5 111.14-25.5L111.14-25.5Q115.14-25.5 117.49-24.1 119.84-22.7 120.86-19.9 121.89-17.1 121.89-12.8L121.89-12.8Q121.89-8.3 120.96-5.35 120.04-2.4 117.71-0.95 115.39 0.5 111.14 0.5ZM111.14-2.85L111.14-2.85Q114.04-2.85 115.49-3.88 116.94-4.9 117.41-7.1 117.89-9.3 117.89-12.8L117.89-12.8Q117.89-16.25 117.29-18.3 116.69-20.35 115.24-21.25 113.79-22.15 111.14-22.15L111.14-22.15Q108.54-22.15 107.06-21.25 105.59-20.35 104.99-18.3 104.39-16.25 104.39-12.8L104.39-12.8Q104.39-9.3 104.86-7.1 105.34-4.9 106.79-3.88 108.24-2.85 111.14-2.85ZM138.28 0L131.84 0 125.94-25 129.84-25 134.74-3.35 135.59-3.35 141.44-24.5 145.49-24.5 151.34-3.35 152.19-3.35 157.09-25 160.99-25 155.09 0 148.63 0 143.44-19.35 138.28 0Z" opacity="1" transform="matrix(1,0,0,1,0,0)" fill="#000000" class="wordmark-text-0" data-fill-palette-color="primary" id="text-0"></path></svg></g></svg></g></svg></g></svg></g><g><svg viewBox="0 0 244.43135999999998 244.43135999999998" height="244.43135999999998" width="244.43135999999998"><g><svg viewBox="0 0 244.43135999999998 244.43135999999998" height="244.43135999999998" width="244.43135999999998"><g transform="matrix(1,0,0,1,64.60265593644993,64.60265593644992)"><svg viewBox="0 0 115.22604812710013 115.22604812710014" height="115.22604812710014" width="115.22604812710013"><g><svg xmlns="http://www.w3.org/2000/svg" xmlns:xlink="http://www.w3.org/1999/xlink" version="1.1" x="0" y="0" viewBox="17.600000000000005 17.6 64.7 64.70000000000002" enable-background="new 0 0 100 100" xml:space="preserve" height="115.22604812710014" width="115.22604812710013" class="icon-cg-0" data-fill-palette-color="accent" id="cg-0"><path d="M47.4 43.3V32.5c0-1.8-1.5-3.2-3.2-3.2-1.8 0-3.2 1.5-3.2 3.2v11.7c0 0.1 0 0.1 0 0.2 0 0.1 0 0.2 0 0.4 0 0.1 0 0.2 0.1 0.3 0 0.1 0.1 0.2 0.1 0.3 0 0.1 0.1 0.2 0.1 0.3 0 0.1 0 0.1 0.1 0.2l5.8 10.1c0.6 1 1.7 1.6 2.8 1.6 0.5 0 1.1-0.1 1.6-0.4 1.6-0.9 2.1-2.9 1.2-4.4L47.4 43.3z" fill="#000000" data-fill-palette-color="accent"></path><path d="M70 30.4c-0.2-0.2-0.4-0.4-0.6-0.6L58.1 18.5c-0.6-0.6-1.4-0.9-2.3-0.9v0h-35c-1.8 0-3.2 1.5-3.2 3.2v46.7c0 1.8 1.5 3.2 3.2 3.2h8.4v8.4c0 1.8 1.5 3.2 3.2 3.2h46.7c1.8 0 3.2-1.5 3.2-3.2v-35c0-0.9-0.3-1.7-0.9-2.3L70 30.4zM24.1 64.3V24.1h28.5v8.4c0 0.9 0.4 1.7 1 2.3 0.6 0.6 1.4 0.9 2.2 0.9 0 0 0.1 0 0.1 0 0.1 0 4.9-0.2 8.3-0.2v28.7H24.1zM75.9 75.9H35.7v-5.2h31.8c1.8 0 3.2-1.5 3.2-3.2V40.3l5.2 5.2V75.9z" fill="#000000" data-fill-palette-color="accent"></path></svg></g></svg></g><g id="text-0"><path d="M30.898 91.775v0c-0.251 0.721-0.586 1.545-1.006 2.472-0.414 0.929-0.85 1.843-1.309 2.743-0.465 0.897-0.869 1.687-1.211 2.369v0l-2.267-1.112c0.308-0.666 0.672-1.442 1.091-2.328 0.415-0.894 0.816-1.775 1.202-2.644 0.38-0.871 0.677-1.618 0.893-2.239v0c0.408-1.175 0.575-2.204 0.499-3.087-0.082-0.886-0.417-1.646-1.004-2.282-0.581-0.634-1.434-1.146-2.558-1.538v0c-0.907-0.316-1.692-0.393-2.354-0.233-0.662 0.16-1.294 0.585-1.896 1.274-0.602 0.689-1.266 1.657-1.992 2.902v0c-0.711 1.202-1.4 2.223-2.068 3.064-0.668 0.84-1.373 1.494-2.114 1.961-0.741 0.467-1.56 0.719-2.457 0.755-0.897 0.036-1.93-0.149-3.099-0.555v0c-1.604-0.558-2.782-1.337-3.535-2.337-0.755-0.994-1.149-2.176-1.181-3.546-0.034-1.364 0.227-2.847 0.785-4.451v0c0.251-0.721 0.576-1.527 0.977-2.419 0.407-0.89 0.819-1.764 1.236-2.622 0.425-0.862 0.809-1.596 1.152-2.201v0l2.318 1.088c-0.342 0.662-0.71 1.432-1.107 2.311-0.403 0.877-0.784 1.723-1.144 2.539-0.366 0.813-0.637 1.471-0.812 1.975v0c-0.4 1.15-0.594 2.169-0.583 3.058 0.018 0.891 0.248 1.64 0.692 2.247 0.444 0.607 1.122 1.07 2.036 1.387v0c1.05 0.365 1.917 0.447 2.601 0.246 0.692-0.205 1.346-0.695 1.964-1.47 0.618-0.775 1.344-1.821 2.178-3.14v0c0.72-1.15 1.404-2.114 2.051-2.892 0.647-0.778 1.318-1.377 2.015-1.797 0.694-0.413 1.452-0.631 2.275-0.651 0.829-0.018 1.78 0.159 2.855 0.533v0c1.815 0.631 3.172 1.465 4.073 2.503 0.902 1.031 1.403 2.237 1.502 3.616 0.101 1.373-0.132 2.873-0.698 4.501z" fill="#000000" data-fill-palette-color="accent"></path><path d="M53.244 56.791v0c-1.315 1.365-2.619 2.192-3.912 2.481-1.293 0.28-2.625 0.093-3.997-0.56-1.376-0.658-2.839-1.734-4.388-3.228v0c-1.73-1.666-2.892-3.243-3.488-4.73-0.591-1.483-0.715-2.886-0.371-4.21 0.343-1.323 1.076-2.568 2.199-3.734v0c1.758-1.824 3.589-2.715 5.493-2.671 1.914 0.043 3.993 1.147 6.24 3.311v0l1.504 1.669-8.67 8.999c1.44 1.351 2.769 2.124 3.987 2.32 1.223 0.191 2.476-0.379 3.759-1.71v0c0.493-0.512 1.02-1.087 1.58-1.726 0.561-0.639 1.114-1.275 1.661-1.909 0.542-0.638 0.995-1.184 1.359-1.638v0l1.725 1.553c-0.349 0.504-0.789 1.108-1.321 1.811-0.536 0.699-1.096 1.398-1.678 2.098-0.592 0.7-1.153 1.325-1.682 1.874zM42.126 52.454v0l6.719-6.974c-1.678-1.616-3.106-2.476-4.286-2.579-1.189-0.104-2.354 0.437-3.495 1.621v0c-0.74 0.768-1.211 1.561-1.415 2.379-0.213 0.818-0.127 1.687 0.258 2.606 0.385 0.91 1.124 1.892 2.219 2.947z" fill="#000000" data-fill-palette-color="accent"></path><path d="M84.272 35.268l-2.693 1.157-7.5-17.458 2.693-1.158 1.006 2.34c0.311-0.492 0.726-1.06 1.244-1.705 0.521-0.654 1.12-1.319 1.796-1.996 0.67-0.675 1.383-1.257 2.139-1.747v0l1.185 2.757c-0.722 0.503-1.431 1.062-2.127 1.677-0.699 0.623-1.329 1.233-1.888 1.831-0.553 0.596-1.001 1.103-1.344 1.523v0z" fill="#000000" data-fill-palette-color="accent"></path><path d="M120.192 27.678l-2.96 0.085-0.473-16.448-2.398 0.069-0.073-2.545 2.398-0.069-0.048-1.668c-0.052-1.822 0.071-3.244 0.371-4.266 0.3-1.022 0.825-1.742 1.577-2.159 0.745-0.41 1.74-0.633 2.982-0.668v0c0.303-0.009 0.721-0.011 1.254-0.007 0.534 0.011 1.051 0.029 1.552 0.054 0.508 0.025 0.864 0.057 1.069 0.098v0l0.032 2.478c-0.455-0.013-1.004-0.017-1.649-0.012-0.645 0.005-1.171 0.014-1.579 0.025v0c-0.71 0.02-1.263 0.158-1.657 0.413-0.401 0.249-0.675 0.691-0.821 1.328-0.146 0.643-0.203 1.533-0.17 2.671v0l0.047 1.628 5.476-0.158 0.073 2.546-5.476 0.157z" fill="#000000" data-fill-palette-color="accent"></path><path d="M155.041 33.072l-2.804-0.855 7.948-26.058 2.804 0.856z" fill="#000000" data-fill-palette-color="accent"></path><path d="M185.437 51.499v0c-1.643-1.349-2.688-2.679-3.134-3.991-0.443-1.317-0.371-2.701 0.216-4.152 0.582-1.455 1.595-3.063 3.04-4.823v0c1.382-1.683 2.725-2.909 4.028-3.678 1.304-0.769 2.639-1.047 4.007-0.835 1.372 0.207 2.83 0.944 4.376 2.213v0c1.566 1.286 2.584 2.582 3.054 3.887 0.474 1.3 0.461 2.664-0.039 4.093-0.5 1.428-1.441 2.984-2.824 4.668v0c-1.445 1.76-2.822 3.069-4.13 3.926-1.314 0.854-2.66 1.192-4.038 1.014-1.374-0.183-2.892-0.957-4.556-2.322zM187.047 49.538v0c1.134 0.931 2.151 1.43 3.05 1.496 0.899 0.066 1.796-0.258 2.689-0.973 0.894-0.705 1.902-1.742 3.026-3.109v0c1.111-1.353 1.879-2.527 2.305-3.523 0.421-1 0.493-1.907 0.216-2.722-0.281-0.819-0.941-1.654-1.979-2.505v0c-1.017-0.835-1.96-1.315-2.827-1.441-0.863-0.121-1.741 0.124-2.635 0.736-0.894 0.612-1.896 1.594-3.007 2.947v0c-1.123 1.368-1.946 2.557-2.468 3.567-0.522 1.019-0.665 1.961-0.431 2.826 0.24 0.869 0.927 1.77 2.061 2.701z" fill="#000000" data-fill-palette-color="accent"></path><path d="M210.615 85.047l-1.913-4.506 15.735-11.559 1.161 2.735-13.692 9.855 0.251 0.59 16.531-2.181 1.2 2.825-13.053 10.377 0.251 0.591 16.6-3.004 1.161 2.735-19.245 3.29-1.913-4.506 11.995-9.382z" fill="#000000" data-fill-palette-color="accent"></path><path d="M12.058 168.031v0c-0.265-0.751-0.531-1.644-0.798-2.681-0.267-1.036-0.508-2.075-0.721-3.115-0.213-1.041-0.4-1.956-0.559-2.744v0l2.59-0.578c0.181 0.752 0.393 1.63 0.635 2.633 0.236 1.005 0.482 1.993 0.741 2.962 0.258 0.97 0.502 1.78 0.731 2.432v0c0.435 1.235 0.977 2.188 1.625 2.86 0.644 0.68 1.416 1.088 2.316 1.225 0.891 0.133 1.929-0.01 3.114-0.427v0c0.956-0.337 1.653-0.785 2.091-1.344 0.436-0.565 0.672-1.329 0.71-2.291 0.046-0.958-0.039-2.191-0.256-3.698v0c-0.206-1.455-0.309-2.748-0.31-3.879-0.001-1.13 0.15-2.129 0.452-2.995 0.302-0.867 0.807-1.61 1.516-2.23 0.716-0.622 1.688-1.15 2.917-1.582v0c1.688-0.595 3.17-0.726 4.445-0.395 1.273 0.326 2.373 1.041 3.299 2.145 0.924 1.098 1.682 2.488 2.275 4.17v0c0.267 0.757 0.524 1.636 0.772 2.637 0.254 0.999 0.491 1.986 0.71 2.963 0.221 0.983 0.389 1.837 0.505 2.564v0l-2.627 0.622c-0.157-0.761-0.357-1.636-0.6-2.625-0.25-0.986-0.493-1.933-0.729-2.841-0.234-0.901-0.444-1.616-0.63-2.143v0c-0.426-1.21-0.934-2.176-1.523-2.896-0.597-0.724-1.278-1.193-2.044-1.404-0.765-0.212-1.626-0.149-2.581 0.187v0c-1.111 0.391-1.882 0.897-2.313 1.516-0.431 0.619-0.643 1.451-0.638 2.496-0.001 1.047 0.088 2.387 0.265 4.02v0c0.161 1.408 0.231 2.646 0.211 3.714-0.021 1.068-0.181 2-0.48 2.796-0.299 0.796-0.778 1.474-1.439 2.035-0.669 0.557-1.568 1.034-2.698 1.432v0c-1.912 0.674-3.576 0.88-4.994 0.619-1.418-0.261-2.618-0.926-3.602-1.996-0.982-1.063-1.774-2.452-2.378-4.164z" fill="#000000" data-fill-palette-color="accent"></path><path d="M39.05 210.269v0c-1.389-1.431-2.213-2.832-2.471-4.204-0.254-1.367-0.013-2.762 0.725-4.184 0.738-1.422 1.919-2.922 3.543-4.499v0c1.818-1.765 3.52-2.931 5.105-3.498 1.577-0.568 3.055-0.65 4.436-0.249 1.381 0.411 2.665 1.228 3.852 2.451v0c1.856 1.912 2.726 3.87 2.608 5.875-0.109 2.004-1.339 4.147-3.69 6.43v0l-1.81 1.523-9.158-9.434c-1.474 1.467-2.332 2.841-2.574 4.122-0.247 1.276 0.308 2.613 1.665 4.011v0c0.518 0.534 1.103 1.108 1.754 1.722 0.647 0.61 1.297 1.213 1.949 1.809 0.652 0.596 1.21 1.095 1.674 1.498v0l-1.694 1.754c-0.52-0.385-1.139-0.871-1.856-1.458-0.717-0.588-1.434-1.203-2.151-1.847-0.712-0.639-1.347-1.246-1.907-1.822zM43.996 198.727v0l7.102 7.316c1.756-1.705 2.709-3.18 2.858-4.425 0.153-1.24-0.373-2.481-1.578-3.723v0c-0.779-0.803-1.597-1.329-2.455-1.579-0.853-0.245-1.766-0.184-2.739 0.183-0.978 0.372-2.041 1.115-3.188 2.228z" fill="#000000" data-fill-palette-color="accent"></path><path d="M76.796 235.365l-2.822-1.207 7.858-18.379 2.823 1.207-1.056 2.469c0.603-0.121 1.343-0.22 2.22-0.296 0.868-0.072 1.806-0.097 2.813-0.075 1.007 0.023 1.968 0.144 2.883 0.363v0l-1.242 2.904c-0.901-0.185-1.842-0.319-2.824-0.402-0.978-0.089-1.896-0.127-2.753-0.114-0.861 0.004-1.577 0.031-2.148 0.079v0z" fill="#000000" data-fill-palette-color="accent"></path><path d="M119.497 244.431l-3.108-0.094 0.523-17.295-2.526-0.076 0.082-2.684 2.525 0.076 0.053-1.756c0.058-1.914 0.274-3.399 0.649-4.454 0.381-1.055 0.975-1.778 1.784-2.168 0.815-0.39 1.874-0.565 3.176-0.526v0c0.322 0.01 0.763 0.036 1.32 0.08 0.558 0.043 1.103 0.093 1.635 0.148 0.532 0.056 0.902 0.116 1.111 0.182v0l-0.118 2.593c-0.479-0.041-1.058-0.078-1.735-0.111-0.677-0.034-1.229-0.057-1.657-0.07v0c-0.743-0.022-1.332 0.085-1.767 0.322-0.435 0.244-0.749 0.695-0.94 1.354-0.198 0.659-0.315 1.587-0.351 2.784v0l-0.052 1.716 5.752 0.174-0.081 2.684-5.752-0.174z" fill="#000000" data-fill-palette-color="accent"></path><path d="M160.125 238.431l-2.952 0.877-8.156-27.469 2.952-0.877z" fill="#000000" data-fill-palette-color="accent"></path><path d="M197.467 217.46v0c-1.743 1.403-3.338 2.192-4.785 2.368-1.452 0.18-2.863-0.188-4.233-1.104-1.37-0.916-2.809-2.309-4.314-4.181v0c-1.436-1.784-2.409-3.429-2.92-4.936-0.507-1.501-0.506-2.938 0.003-4.31 0.508-1.363 1.582-2.705 3.223-4.025v0c1.661-1.337 3.212-2.107 4.652-2.311 1.45-0.203 2.853 0.103 4.211 0.919 1.362 0.821 2.761 2.124 4.196 3.908v0c1.506 1.871 2.559 3.574 3.161 5.109 0.601 1.535 0.659 2.992 0.173 4.371-0.481 1.375-1.604 2.773-3.367 4.192zM195.79 215.376v0c1.205-0.969 1.936-1.908 2.193-2.817 0.263-0.912 0.124-1.903-0.416-2.972-0.534-1.073-1.387-2.338-2.559-3.794v0c-1.151-1.43-2.195-2.47-3.13-3.119-0.936-0.649-1.855-0.919-2.756-0.811-0.901 0.108-1.903 0.606-3.004 1.493v0c-1.082 0.87-1.777 1.738-2.086 2.604-0.309 0.865-0.247 1.824 0.187 2.877 0.434 1.053 1.226 2.295 2.377 3.726v0c1.172 1.456 2.225 2.56 3.158 3.311 0.929 0.756 1.867 1.103 2.815 1.042 0.942-0.057 2.016-0.57 3.221-1.54z" fill="#000000" data-fill-palette-color="accent"></path><path d="M228.056 176.106l-2.053 4.736-20.212-3.63 1.237-2.853 17.443 3.291 0.271-0.625-13.652-11.018 1.287-2.97 17.375 2.433 0.267-0.616-14.326-10.482 1.24-2.862 16.463 12.279-2.05 4.728-15.844-2.34z" fill="#000000" data-fill-palette-color="accent"></path><path d="M4.155 126.323c0-5.827 4.723-10.55 10.55-10.551 5.827 0 10.55 4.723 10.55 10.551 0 5.827-4.723 10.55-10.55 10.55-5.827 0-10.55-4.723-10.55-10.55z" fill="#000000" data-fill-palette-color="accent"></path><path d="M219.176 126.323c0-5.827 4.723-10.55 10.55-10.551 5.827 0 10.55 4.723 10.55 10.551 0 5.827-4.723 10.55-10.55 10.55-5.827 0-10.55-4.723-10.55-10.55z" fill="#000000" data-fill-palette-color="accent"></path></g><g id="text-1"></g></svg></g></svg></g></svg></g><defs></defs></svg><rect width="395.52" height="139.26697049179813" fill="none" stroke="none" visibility="hidden"></rect></g></svg></g></svg>