<svg width="1000" height="351" viewBox="0 0 1000 351" fill="none" xmlns="http://www.w3.org/2000/svg">
<g clip-path="url(#clip0_0_5)">
<g clip-path="url(#clip1_0_5)">
<g clip-path="url(#clip2_0_5)">
<g clip-path="url(#clip3_0_5)">
<g clip-path="url(#clip4_0_5)">
<g clip-path="url(#clip5_0_5)">
<g clip-path="url(#clip6_0_5)">
<path d="M470.738 241.2C467.153 241.2 462.971 240.997 458.192 240.59C453.413 240.16 448.669 239.61 443.961 238.941C439.23 238.296 435.072 237.735 431.487 237.257L432.921 225.428C436.386 225.786 440.425 226.204 445.037 226.682C449.625 227.16 454.165 227.578 458.658 227.937C463.127 228.295 466.914 228.474 470.021 228.474C475.876 228.474 480.715 227.602 484.539 225.858C488.362 224.137 491.23 221.485 493.142 217.9C495.053 214.315 496.009 209.715 496.009 204.099C496.009 199.559 495.149 195.939 493.428 193.238C491.684 190.562 488.804 188.411 484.79 186.786C480.799 185.185 475.458 183.727 468.767 182.413C462.314 181.098 456.698 179.605 451.919 177.932C447.14 176.259 443.137 174.132 439.911 171.552C436.685 168.995 434.295 165.745 432.742 161.802C431.188 157.859 430.412 152.96 430.412 147.105C430.412 139.099 432.061 132.647 435.358 127.748C438.632 122.849 443.292 119.265 449.338 116.995C455.36 114.724 462.374 113.589 470.38 113.589C473.964 113.589 478.062 113.792 482.675 114.199C487.263 114.629 491.803 115.107 496.296 115.632C500.765 116.182 504.612 116.756 507.838 117.353L506.584 129.361C503.119 128.883 499.116 128.429 494.575 127.999C490.035 127.593 485.674 127.211 481.492 126.852C477.31 126.494 473.964 126.314 471.455 126.314C465.72 126.314 460.88 127.031 456.937 128.465C452.994 129.899 450.007 132.074 447.976 134.989C445.945 137.928 444.929 141.668 444.929 146.209C444.929 151.466 445.921 155.469 447.904 158.217C449.864 160.965 453.054 163.116 457.475 164.669C461.896 166.223 467.691 167.836 474.86 169.508C481.074 170.942 486.426 172.496 490.919 174.168C495.388 175.841 499.092 177.896 502.031 180.334C504.947 182.795 507.097 185.842 508.483 189.474C509.846 193.131 510.527 197.647 510.527 203.024C510.527 212.105 508.914 219.453 505.688 225.069C502.461 230.685 497.861 234.771 491.887 237.328C485.913 239.909 478.863 241.2 470.738 241.2ZM563.578 241.379C554.617 241.379 547.531 239.646 542.322 236.181C537.136 232.716 533.408 227.578 531.138 220.768C528.868 213.957 527.733 205.473 527.733 195.317C527.733 183.966 529.286 174.849 532.392 167.967C535.499 161.109 539.86 156.09 545.476 152.912C551.092 149.757 557.723 148.18 565.37 148.18C577.319 148.18 586.34 151.49 592.434 158.109C598.528 164.753 601.575 175.423 601.575 190.12L600.858 200.694H541.892C542.011 210.014 543.744 217.064 547.089 221.843C550.435 226.622 556.469 229.012 565.191 229.012C568.537 229.012 572.205 228.917 576.196 228.725C580.211 228.558 584.189 228.355 588.132 228.116C592.075 227.877 595.421 227.638 598.169 227.399L598.528 238.332C595.66 238.81 592.159 239.288 588.025 239.766C583.915 240.244 579.709 240.638 575.407 240.949C571.106 241.235 567.163 241.379 563.578 241.379ZM541.892 189.403H587.595C587.595 178.41 585.826 170.727 582.29 166.354C578.777 162.005 573.137 159.83 565.37 159.83C560.352 159.83 556.11 160.81 552.645 162.769C549.18 164.753 546.516 167.895 544.652 172.197C542.812 176.498 541.892 182.234 541.892 189.403ZM636.166 239.587H622.365V149.973H636.166V161.981C638.412 160.427 641.28 158.719 644.769 156.855C648.21 155.015 652.021 153.258 656.203 151.586C660.385 149.913 664.567 148.718 668.749 148.001V162.16C664.687 162.996 660.564 164.096 656.382 165.458C652.224 166.844 648.377 168.314 644.84 169.867C641.303 171.42 638.412 172.794 636.166 173.989V239.587ZM702.265 239.587H688.285V161.981H676.994V149.973H688.285V142.086C688.285 133.484 689.062 126.792 690.615 122.013C692.168 117.234 694.737 113.912 698.322 112.048C701.906 110.208 706.626 109.288 712.481 109.288C713.915 109.288 715.886 109.347 718.395 109.467C720.905 109.586 723.354 109.73 725.744 109.897C728.133 110.088 729.806 110.303 730.762 110.542L730.583 122.192C728.432 122.073 725.839 121.977 722.804 121.905C719.746 121.858 717.26 121.834 715.349 121.834C712.003 121.834 709.374 122.395 707.463 123.518C705.551 124.666 704.213 126.733 703.448 129.72C702.659 132.707 702.265 136.889 702.265 142.266V149.973H728.074V161.981H702.265V239.587ZM758.901 239.587H745.1V111.08H758.901V239.587ZM820.197 241.379C810.16 241.379 802.358 239.646 796.79 236.181C791.246 232.716 787.362 227.459 785.14 220.409C782.941 213.36 781.842 204.458 781.842 193.704C781.842 183.428 783.061 174.945 785.498 168.254C787.96 161.563 791.998 156.544 797.614 153.199C803.23 149.853 810.758 148.18 820.197 148.18C829.756 148.18 837.343 149.853 842.959 153.199C848.575 156.544 852.601 161.563 855.039 168.254C857.5 174.945 858.731 183.428 858.731 193.704C858.731 204.458 857.62 213.36 855.397 220.409C853.199 227.459 849.316 232.716 843.748 236.181C838.203 239.646 830.353 241.379 820.197 241.379ZM820.197 229.371C827.127 229.371 832.325 228.14 835.79 225.678C839.255 223.241 841.549 219.394 842.672 214.136C843.819 208.879 844.393 202.068 844.393 193.704C844.393 185.46 843.676 178.888 842.242 173.989C840.808 169.09 838.359 165.565 834.894 163.415C831.429 161.264 826.53 160.189 820.197 160.189C813.984 160.189 809.109 161.264 805.572 163.415C802.059 165.565 799.586 169.09 798.152 173.989C796.718 178.888 796.001 185.46 796.001 193.704C796.001 202.068 796.563 208.879 797.686 214.136C798.833 219.394 801.139 223.241 804.604 225.678C808.069 228.14 813.267 229.371 820.197 229.371ZM917.482 239.587H894.397L873.249 149.973H887.228L904.793 227.578H907.84L928.809 151.765H943.327L964.296 227.578H967.343L984.908 149.973H998.887L977.739 239.587H954.582L935.978 170.225L917.482 239.587Z" fill="white"/>
</g>
</g>
</g>
</g>
<g clip-path="url(#clip7_0_5)">
<g clip-path="url(#clip8_0_5)">
<g clip-path="url(#clip9_0_5)">
<g clip-path="url(#clip10_0_5)">
<path d="M170.237 158.31V130.664C170.237 126.056 166.397 122.472 162.046 122.472C157.438 122.472 153.854 126.312 153.854 130.664V160.614C153.854 160.87 153.854 160.87 153.854 161.126C153.854 161.382 153.854 161.638 153.854 162.15C153.854 162.406 153.854 162.662 154.11 162.918C154.11 163.174 154.366 163.43 154.366 163.686C154.366 163.942 154.622 164.198 154.622 164.454C154.622 164.71 154.622 164.71 154.878 164.966L169.725 190.821C171.261 193.38 174.077 194.916 176.893 194.916C178.173 194.916 179.709 194.66 180.989 193.892C185.084 191.588 186.364 186.469 184.06 182.629L170.237 158.31Z" fill="white"/>
<path d="M228.09 125.288C227.578 124.776 227.066 124.264 226.554 123.752L197.628 94.8255C196.092 93.2896 194.044 92.5216 191.74 92.5216H102.145C97.5369 92.5216 93.9531 96.3614 93.9531 100.713V220.259C93.9531 224.867 97.7929 228.451 102.145 228.451H123.648V249.953C123.648 254.561 127.487 258.145 131.839 258.145H251.385C255.993 258.145 259.576 254.305 259.576 249.953V160.358C259.576 158.054 258.809 156.006 257.273 154.47L228.09 125.288ZM110.592 212.067V109.161H183.548V130.664C183.548 132.968 184.572 135.015 186.108 136.551C187.644 138.087 189.692 138.855 191.74 138.855H191.996C192.252 138.855 204.539 138.343 213.243 138.343V211.811H110.592V212.067ZM243.193 241.762H140.287V228.451H221.69C226.298 228.451 229.882 224.611 229.882 220.259V150.631L243.193 163.942V241.762Z" fill="white"/>
</g>
</g>
<path d="M45.5068 131.579C45.146 132.615 44.6645 133.799 44.0608 135.132C43.4657 136.467 42.839 137.781 42.1792 139.074C41.5109 140.364 40.9302 141.499 40.4386 142.48L37.18 140.881C37.6227 139.924 38.146 138.809 38.7482 137.535C39.3447 136.25 39.9211 134.984 40.4759 133.735C41.0221 132.483 41.449 131.409 41.7595 130.516C42.346 128.827 42.586 127.348 42.4768 126.079C42.3589 124.806 41.8774 123.713 41.0336 122.799C40.1985 121.888 38.9724 121.152 37.3568 120.588C36.0531 120.134 34.9248 120.023 33.9732 120.253C33.0217 120.483 32.1133 121.094 31.248 122.085C30.3827 123.075 29.4283 124.466 28.3847 126.256C27.3627 127.984 26.3724 129.451 25.4122 130.66C24.4521 131.867 23.4387 132.808 22.3736 133.479C21.3085 134.15 20.1313 134.512 18.842 134.564C17.5526 134.616 16.0678 134.35 14.3875 133.766C12.082 132.964 10.3888 131.844 9.30641 130.407C8.22119 128.978 7.65486 127.279 7.60887 125.31C7.56 123.35 7.93515 121.218 8.73721 118.912C9.09799 117.876 9.56514 116.718 10.1415 115.435C10.7265 114.156 11.3187 112.9 11.9181 111.667C12.529 110.428 13.081 109.373 13.574 108.503L16.9058 110.067C16.4142 111.018 15.8853 112.125 15.3146 113.389C14.7354 114.649 14.1877 115.865 13.6703 117.038C13.1442 118.207 12.7547 119.152 12.5031 119.877C11.9282 121.53 11.6493 122.995 11.6651 124.272C11.691 125.553 12.0216 126.63 12.6598 127.502C13.298 128.375 14.2726 129.04 15.5863 129.496C17.0956 130.02 18.3418 130.138 19.3249 129.849C20.3196 129.555 21.2596 128.85 22.1479 127.736C23.0362 126.622 24.0798 125.119 25.2786 123.223C26.3135 121.57 27.2966 120.184 28.2266 119.066C29.1566 117.948 30.1211 117.087 31.1229 116.483C32.1205 115.89 33.21 115.576 34.393 115.547C35.5845 115.522 36.9515 115.776 38.4967 116.314C41.1055 117.221 43.056 118.419 44.3511 119.911C45.6476 121.393 46.3678 123.127 46.5101 125.109C46.6552 127.082 46.3203 129.239 45.5068 131.579Z" fill="white"/>
<path d="M77.6264 81.2933C75.7363 83.2554 73.8619 84.4441 72.0034 84.8595C70.1449 85.2619 68.2303 84.9931 66.2582 84.0545C64.2804 83.1087 62.1775 81.5621 59.951 79.4147C57.4643 77.02 55.7941 74.7533 54.9374 72.6159C54.0879 70.4843 53.9097 68.4676 54.4042 66.5645C54.8972 64.6629 55.9508 62.8733 57.5649 61.1974C60.0919 58.5756 62.7237 57.2949 65.4605 57.3581C68.2116 57.4199 71.1999 59.0068 74.4297 62.1173L76.5915 64.5163L64.1295 77.4512C66.1993 79.3931 68.1096 80.5042 69.8603 80.7859C71.6182 81.0605 73.4192 80.2412 75.2634 78.328C75.972 77.5921 76.7295 76.7656 77.5344 75.8471C78.3408 74.9286 79.1357 74.0145 79.9219 73.1032C80.701 72.1861 81.3521 71.4013 81.8753 70.7487L84.3548 72.981C83.8531 73.7054 83.2207 74.5736 82.456 75.5841C81.6856 76.5888 80.8807 77.5935 80.0441 78.5997C79.1932 79.6059 78.3868 80.5042 77.6264 81.2933ZM61.6457 75.0594L71.3034 65.0352C68.8915 62.7124 66.8389 61.4762 65.1428 61.3282C63.4338 61.1787 61.7592 61.9563 60.1192 63.6581C59.0555 64.7621 58.3785 65.9019 58.0853 67.0777C57.7791 68.2534 57.9027 69.5025 58.4561 70.8235C59.0095 72.1315 60.0717 73.543 61.6457 75.0594Z" fill="white"/>
<path d="M122.225 50.3567L118.355 52.0197L107.574 26.926L111.445 25.2615L112.891 28.6249C113.338 27.9178 113.935 27.1013 114.679 26.1742C115.428 25.2342 116.289 24.2783 117.261 23.3052C118.224 22.335 119.249 21.4984 120.335 20.7941L122.039 24.757C121.001 25.48 119.982 26.2835 118.981 27.1674C117.976 28.0629 117.071 28.9397 116.267 29.7993C115.473 30.656 114.829 31.3847 114.336 31.9884L122.225 50.3567Z" fill="white"/>
<path d="M173.856 39.447L169.601 39.5691L168.921 15.9271L165.475 16.0263L165.37 12.3682L168.817 12.269L168.748 9.87148C168.673 7.25257 168.85 5.20862 169.281 3.73962C169.712 2.27062 170.467 1.23571 171.548 0.636324C172.618 0.0469996 174.049 -0.273536 175.834 -0.323844C176.269 -0.33678 176.87 -0.339655 177.636 -0.333905C178.404 -0.318094 179.147 -0.292221 179.867 -0.256287C180.597 -0.220353 181.109 -0.174357 181.404 -0.115424L181.45 3.4464C180.796 3.42771 180.006 3.42196 179.079 3.42915C178.152 3.43634 177.396 3.44927 176.81 3.46508C175.789 3.49383 174.994 3.69219 174.428 4.05872C173.852 4.41663 173.458 5.05195 173.248 5.96756C173.038 6.89179 172.956 8.17106 173.004 9.80679L173.071 12.1468L180.942 11.9197L181.047 15.5793L173.176 15.805L173.856 39.447Z" fill="white"/>
<path d="M223.947 47.2002L219.917 45.9712L231.341 8.51603L235.371 9.74642L223.947 47.2002Z" fill="white"/>
<path d="M267.638 73.6867C265.276 71.7477 263.774 69.836 263.133 67.9502C262.496 66.0571 262.6 64.0678 263.443 61.9822C264.28 59.8908 265.736 57.5795 267.813 55.0497C269.8 52.6306 271.73 50.8684 273.603 49.763C275.477 48.6577 277.396 48.2581 279.362 48.5628C281.334 48.8603 283.43 49.9197 285.652 51.7437C287.903 53.5922 289.367 55.455 290.042 57.3308C290.723 59.1994 290.705 61.16 289.986 63.214C289.267 65.2666 287.915 67.5031 285.927 69.9237C283.85 72.4535 281.871 74.335 279.991 75.5668C278.102 76.7943 276.167 77.2802 274.186 77.0243C272.211 76.7613 270.029 75.6488 267.638 73.6867ZM269.952 70.868C271.582 72.2062 273.044 72.9235 274.336 73.0184C275.628 73.1132 276.917 72.6475 278.201 71.6198C279.486 70.6064 280.935 69.1159 282.55 67.151C284.147 65.2062 285.251 63.5187 285.864 62.0871C286.469 60.6497 286.572 59.346 286.174 58.1746C285.77 56.9973 284.822 55.7971 283.33 54.5739C281.868 53.3737 280.512 52.6838 279.266 52.5027C278.026 52.3287 276.764 52.6809 275.479 53.5606C274.194 54.4402 272.753 55.8518 271.156 57.7965C269.542 59.7629 268.359 61.4719 267.609 62.9237C266.859 64.3883 266.653 65.7423 266.989 66.9857C267.334 68.2348 268.322 69.5298 269.952 70.868Z" fill="white"/>
<path d="M303.828 121.908L301.078 115.431L323.695 98.8164L325.364 102.748L305.684 116.913L306.044 117.761L329.806 114.626L331.531 118.687L312.768 133.602L313.129 134.452L336.99 130.134L338.658 134.065L310.996 138.794L308.246 132.317L325.488 118.832L303.828 121.908Z" fill="white"/>
<path d="M18.4266 241.187C18.0457 240.108 17.6633 238.824 17.2795 237.334C16.8958 235.845 16.5494 234.351 16.2432 232.856C15.937 231.36 15.6682 230.045 15.4397 228.912L19.1625 228.081C19.4227 229.162 19.7274 230.424 20.0752 231.866C20.4145 233.31 20.7681 234.731 21.1403 236.123C21.5112 237.518 21.8619 238.682 22.1911 239.619C22.8163 241.394 23.5954 242.764 24.5268 243.73C25.4525 244.707 26.5621 245.294 27.8558 245.491C29.1365 245.682 30.6285 245.476 32.3318 244.877C33.7059 244.393 34.7077 243.749 35.3373 242.945C35.964 242.133 36.3032 241.035 36.3579 239.652C36.424 238.275 36.3018 236.503 35.9899 234.337C35.6938 232.245 35.5457 230.387 35.5443 228.761C35.5429 227.137 35.7599 225.701 36.194 224.456C36.6281 223.21 37.354 222.142 38.3731 221.251C39.4022 220.357 40.7994 219.598 42.5659 218.977C44.9922 218.122 47.1224 217.933 48.955 218.409C50.7848 218.878 52.3659 219.905 53.6969 221.492C55.0251 223.071 56.1146 225.068 56.967 227.486C57.3508 228.574 57.7202 229.838 58.0766 231.277C58.4417 232.712 58.7824 234.131 59.0972 235.535C59.4148 236.948 59.6563 238.176 59.823 239.221L56.0471 240.115C55.8214 239.021 55.5339 237.763 55.1846 236.342C54.8253 234.925 54.476 233.563 54.1368 232.258C53.8004 230.963 53.4986 229.935 53.2312 229.178C52.6189 227.439 51.8887 226.05 51.0421 225.015C50.184 223.975 49.2051 223.301 48.1041 222.997C47.0045 222.693 45.7669 222.783 44.3942 223.266C42.7973 223.828 41.6891 224.555 41.0696 225.445C40.4501 226.335 40.1453 227.531 40.1525 229.033C40.1511 230.538 40.279 232.464 40.5334 234.811C40.7649 236.835 40.8655 238.614 40.8367 240.149C40.8065 241.685 40.5766 243.024 40.1468 244.168C39.717 245.313 39.0285 246.287 38.0784 247.093C37.1168 247.894 35.8246 248.58 34.2004 249.152C31.4521 250.121 29.0603 250.417 27.0221 250.041C24.9839 249.666 23.259 248.71 21.8447 247.172C20.4331 245.645 19.2947 243.648 18.4266 241.187Z" fill="white"/>
<path d="M57.2243 301.899C55.2278 299.842 54.0434 297.829 53.6725 295.856C53.3074 293.892 53.6538 291.886 54.7146 289.842C55.7754 287.798 57.473 285.642 59.8073 283.376C62.4204 280.839 64.8668 279.163 67.1451 278.348C69.4118 277.531 71.5363 277.413 73.5213 277.99C75.5063 278.581 77.3519 279.755 79.0581 281.513C81.7258 284.261 82.9763 287.075 82.8067 289.957C82.6501 292.838 80.8821 295.918 77.5028 299.2L74.9012 301.389L61.7377 287.829C59.619 289.937 58.3857 291.912 58.0378 293.754C57.6828 295.588 58.4806 297.509 60.4311 299.519C61.1756 300.286 62.0165 301.111 62.9522 301.994C63.8822 302.871 64.8165 303.738 65.7537 304.594C66.6909 305.451 67.4929 306.168 68.1599 306.747L65.7249 309.269C64.9775 308.715 64.0878 308.017 63.0572 307.173C62.0266 306.328 60.996 305.444 59.9654 304.518C58.942 303.6 58.0292 302.727 57.2243 301.899ZM64.3336 285.309L74.5418 295.825C77.0659 293.374 78.4357 291.254 78.6498 289.464C78.8698 287.682 78.1137 285.898 76.3817 284.113C75.2619 282.959 74.0862 282.203 72.8529 281.843C71.6268 281.491 70.3145 281.579 68.9159 282.106C67.5102 282.641 65.9822 283.709 64.3336 285.309Z" fill="white"/>
<path d="M111.48 337.972L107.423 336.237L118.718 309.819L122.776 311.554L121.258 315.103C122.125 314.929 123.188 314.787 124.449 314.677C125.697 314.574 127.045 314.538 128.492 314.57C129.94 314.603 131.321 314.777 132.636 315.091L130.851 319.266C129.556 319 128.203 318.807 126.792 318.688C125.386 318.56 124.067 318.505 122.835 318.524C121.597 318.53 120.568 318.568 119.747 318.637L111.48 337.972Z" fill="white"/>
<path d="M172.857 351.003L168.39 350.868L169.141 326.008L165.511 325.899L165.628 322.041L169.258 322.15L169.334 319.626C169.417 316.875 169.728 314.741 170.267 313.224C170.814 311.708 171.668 310.669 172.831 310.108C174.003 309.547 175.525 309.296 177.396 309.352C177.859 309.366 178.493 309.404 179.294 309.467C180.096 309.529 180.879 309.601 181.644 309.68C182.408 309.76 182.94 309.846 183.241 309.941L183.071 313.668C182.382 313.61 181.55 313.556 180.577 313.509C179.604 313.46 178.811 313.427 178.195 313.408C177.127 313.377 176.281 313.53 175.656 313.871C175.03 314.222 174.579 314.87 174.304 315.817C174.02 316.765 173.852 318.098 173.8 319.819L173.725 322.286L181.993 322.536L181.877 326.394L173.609 326.143L172.857 351.003Z" fill="white"/>
<path d="M231.255 342.379L227.012 343.639L215.288 304.156L219.532 302.895L231.255 342.379Z" fill="white"/>
<path d="M284.929 312.235C282.424 314.252 280.131 315.386 278.051 315.639C275.964 315.898 273.936 315.369 271.967 314.052C269.998 312.736 267.929 310.733 265.766 308.043C263.702 305.478 262.304 303.114 261.569 300.948C260.84 298.79 260.842 296.725 261.573 294.753C262.304 292.793 263.847 290.864 266.206 288.967C268.594 287.045 270.823 285.939 272.893 285.645C274.977 285.354 276.994 285.793 278.946 286.966C280.903 288.146 282.914 290.019 284.977 292.584C287.141 295.273 288.655 297.721 289.52 299.927C290.384 302.133 290.468 304.228 289.769 306.21C289.078 308.186 287.463 310.196 284.929 312.235ZM282.519 309.24C284.251 307.847 285.302 306.497 285.671 305.191C286.049 303.88 285.849 302.455 285.073 300.919C284.306 299.377 283.079 297.558 281.395 295.465C279.74 293.41 278.24 291.915 276.896 290.982C275.55 290.049 274.229 289.661 272.934 289.817C271.639 289.972 270.199 290.688 268.617 291.963C267.061 293.213 266.062 294.461 265.618 295.706C265.174 296.949 265.263 298.327 265.887 299.841C266.511 301.354 267.649 303.14 269.304 305.197C270.988 307.289 272.502 308.876 273.843 309.956C275.178 311.042 276.526 311.541 277.889 311.453C279.243 311.372 280.787 310.634 282.519 309.24Z" fill="white"/>
<path d="M328.897 252.794L325.946 259.601L296.894 254.384L298.672 250.283L323.744 255.013L324.134 254.115L304.511 238.278L306.361 234.009L331.335 237.506L331.719 236.621L311.127 221.554L312.909 217.44L336.573 235.09L333.626 241.886L310.852 238.522L328.897 252.794Z" fill="white"/>
<path d="M7.06699 181.237C7.06699 172.861 13.8557 166.073 22.2313 166.071C30.6069 166.071 37.3957 172.86 37.3957 181.237C37.3957 189.613 30.6069 196.401 22.2313 196.401C13.8557 196.401 7.06699 189.613 7.06699 181.237Z" fill="white"/>
<path d="M316.133 181.237C316.133 172.861 322.922 166.073 331.298 166.071C339.673 166.071 346.462 172.86 346.462 181.237C346.462 189.613 339.673 196.401 331.298 196.401C322.922 196.401 316.133 189.613 316.133 181.237Z" fill="white"/>
</g>
</g>
</g>
</g>
</g>
<defs>
<clipPath id="clip0_0_5">
<rect width="1000" height="350.667" fill="white"/>
</clipPath>
<clipPath id="clip1_0_5">
<rect width="997.811" height="351.34" fill="white" transform="translate(1.09467 -0.336756)"/>
</clipPath>
<clipPath id="clip2_0_5">
<rect width="997.811" height="351.34" fill="white" transform="translate(1.09467 -0.336756)"/>
</clipPath>
<clipPath id="clip3_0_5">
<rect width="568.512" height="132.091" fill="white" transform="translate(430.394 109.288)"/>
</clipPath>
<clipPath id="clip4_0_5">
<rect width="568.512" height="132.091" fill="white" transform="translate(430.394 109.288)"/>
</clipPath>
<clipPath id="clip5_0_5">
<rect width="568.512" height="132.091" fill="white" transform="translate(430.394 109.288)"/>
</clipPath>
<clipPath id="clip6_0_5">
<rect width="568.512" height="132.091" fill="white" transform="translate(430.394 109.288)"/>
</clipPath>
<clipPath id="clip7_0_5">
<rect width="351.34" height="351.34" fill="white" transform="translate(1.09467 -0.336756)"/>
</clipPath>
<clipPath id="clip8_0_5">
<rect width="351.34" height="351.34" fill="white" transform="translate(1.09467 -0.336756)"/>
</clipPath>
<clipPath id="clip9_0_5">
<rect width="165.623" height="165.623" fill="white" transform="translate(93.9531 92.5216)"/>
</clipPath>
<clipPath id="clip10_0_5">
<rect width="165.623" height="165.623" fill="white" transform="translate(93.9531 92.5216)"/>
</clipPath>
</defs>
</svg>
